<svg width="279" height="88" viewBox="0 0 279 88" fill="none" xmlns="http://www.w3.org/2000/svg">
<path fill-rule="evenodd" clip-rule="evenodd" d="M141.252 30.7502C149.72 18.0627 165.627 13.6743 177.102 21.2548C188.656 28.8353 191.268 45.3523 183.038 58.1992C174.649 71.1259 158.663 75.3555 147.188 67.6954C144.738 66.049 142.349 63.6936 140.62 61.1895V87.0491H124.432V18.1351H140.62V31.7472C140.822 31.4142 141.031 31.0806 141.252 30.7502ZM167.527 25.8825C163.886 23.728 157.001 28.2766 152.173 36.3359C147.109 44.2354 146.08 52.2944 149.641 54.449C153.123 56.6035 160.008 51.8953 164.994 43.9956C169.9 36.0164 171.009 28.0371 167.527 25.8825Z" fill="white"></path>
<path fill-rule="evenodd" clip-rule="evenodd" d="M209.67 30.7502C218.138 18.0627 234.045 13.6743 245.52 21.2548C257.074 28.8353 259.686 45.3523 251.456 58.1992C243.068 71.1259 227.081 75.3555 215.606 67.6954C213.124 66.0271 210.702 63.6317 208.968 61.0904V87.0491H192.78V18.1351H208.968V31.8624C209.191 31.4905 209.423 31.1188 209.67 30.7502ZM235.945 25.8825C232.304 23.728 225.419 28.2766 220.592 36.3359C215.527 44.2354 214.498 52.2944 218.059 54.449C221.541 56.6035 228.426 51.8953 233.412 43.9956C238.318 36.0164 239.427 28.0371 235.945 25.8825Z" fill="white"></path>
<path fill-rule="evenodd" clip-rule="evenodd" d="M64.1863 31.3886C72.575 18.462 88.5607 14.2324 100.036 21.8924C100.682 22.3265 101.323 22.8116 101.95 23.334V18.1351H118.137V70.7274H101.95V63.7274C93.0768 72.5292 79.9679 74.8383 70.1214 68.3338C58.567 60.7533 55.9558 44.2356 64.1863 31.3886ZM98.9285 35.9366C95.4463 33.7821 88.5609 38.4903 83.5751 46.39C78.6687 54.3692 77.5607 62.3483 81.0423 64.5031C84.6827 66.6575 91.5681 62.1096 96.3957 54.0505C101.461 46.1509 102.49 38.0911 98.9285 35.9366Z" fill="white"></path>
<path d="M29.1271 17.185C47.0917 17.185 56.1133 24.9249 56.1926 34.58C56.1926 40.405 53.1061 43.9159 51.9981 45.3522H31.1058C39.0194 35.5375 36.4075 24.0468 30.1555 24.0468C25.8821 24.0472 20.8964 30.3511 20.8963 37.5323C20.8963 46.9481 22.4002 59.3163 55.9555 55.3266L45.4298 70.7274H12.9034C8.0759 66.4184 0.162154 59.3166 0.0038752 45.8313C-0.312656 22.6109 18.8389 17.185 29.1271 17.185Z" fill="white"></path>
<path d="M277.949 7.06434C278.835 9.72529 277.529 12.4434 273.77 13.4378C267.911 14.9877 258.107 11.7775 256.401 6.65293C255.499 3.94277 257.182 1.37565 260.885 0.395878C266.689 -1.13949 276.243 1.93966 277.949 7.06434Z" fill="white"></path>
<path d="M260.229 18.1352H277.316V70.7275H260.229V18.1352Z" fill="white"></path>
</svg>