<svg width="422" height="68" viewBox="0 0 422 68" fill="none" xmlns="http://www.w3.org/2000/svg">
<path d="M377.101 0C385.251 3.81091 394.995 11.205 402.792 17.7197C410.675 24.3061 417.27 30.593 419.219 32.6816C419.956 33.4719 421.095 34.9806 421.341 37.1826C421.613 39.6213 420.656 41.5828 419.632 42.8242C418.721 43.9276 417.668 44.6018 416.997 44.9805C416.264 45.3943 415.504 45.721 414.826 45.9814C412.342 46.936 408.413 47.9252 404.099 49.0664C395.034 51.4641 381.437 55.2098 364.468 62.4844L359.148 50.0762C371.042 44.9776 381.371 41.5278 389.692 39.0635C316.984 22.0434 263.328 34.28 182.329 55.5986C93.9614 78.8569 33.8285 67.4232 0 33.5947L9.54688 24.0479C38.3313 52.8323 92.3545 65.3205 178.893 42.5439C259.584 21.3061 315.708 8.29716 391.011 25.5127C384.155 19.9794 376.957 14.8351 371.383 12.2285L377.101 0Z" fill="#D7FF64"></path>
</svg>