<svg width="96" height="96" viewBox="0 0 96 96" fill="none" xmlns="http://www.w3.org/2000/svg">
<path d="M21.6 27H14.4C11.4177 27 9 29.5904 9 32.7857V75.2143C9 78.4096 11.4177 81 14.4 81H21.6C24.5823 81 27 78.4096 27 75.2143V32.7857C27 29.5904 24.5823 27 21.6 27Z" stroke="currentColor" stroke-width="6" stroke-linecap="round" stroke-linejoin="round"></path>
<path d="M27 74.958L34.2048 80.7993C36.7665 82.8798 40.0087 84 43.2909 84H59.6618C62.944 84 66.1461 82.8797 68.7078 80.8393L80.3155 71.5572C84.5584 68.1965 87 63.0753 87 57.6741V46.4716C87 42.1106 83.4777 38.5898 79.1147 38.5898H60.6224C58.2208 38.5898 56.3796 36.5094 56.6598 34.1488L58.6611 19.1055C59.4616 13.1041 52.1368 9.58333 47.934 13.9443L27 35.7092" stroke="currentColor" stroke-width="6" stroke-linecap="round" stroke-linejoin="round"></path>
</svg>