<svg width="92" height="94" viewBox="0 0 92 94" fill="none" xmlns="http://www.w3.org/2000/svg">
<path d="M45.7013 26.6779C55.9074 16.4719 72.4552 16.4718 82.6613 26.6779L84.2912 28.3088C94.4973 38.5149 94.4973 55.0626 84.2912 65.2687L65.8302 46.8068C76.018 57.0144 76.0117 73.5482 65.8117 83.7482L64.1808 85.3791C53.9748 95.5846 37.4278 95.5848 27.2218 85.3791L46.2082 66.3908C35.9992 76.5607 19.4794 76.5496 9.28531 66.3556L7.65446 64.7248C-2.55142 54.5187 -2.55155 37.9708 7.65446 27.7648L46.2443 66.3547L65.8107 46.7883L45.7013 26.6779ZM27.7648 7.65446C37.9708 -2.55156 54.5186 -2.55141 64.7248 7.65446L26.1349 46.2453C15.9288 36.0392 15.9288 19.4914 26.1349 9.28532L27.7648 7.65446Z" fill="white"></path>
</svg>