<svg width="371" height="86" viewBox="0 0 371 86" fill="none" xmlns="http://www.w3.org/2000/svg">
<path d="M270.986 0.762368C274.498 -0.0596766 279.177 -0.651667 283.147 1.37174C285.412 2.52568 287.193 4.40983 288.182 6.87858C289.105 9.18364 289.175 11.5823 288.913 13.7243V13.7262C287.248 27.2918 285.087 38.7713 284.89 47.1862C284.819 50.2025 285.051 52.0205 285.295 53.0133C285.665 52.8163 286.641 52.2444 288.424 50.7477C290.7 48.836 293.505 46.1209 297.119 42.5563C304.243 35.5296 313.924 25.7923 326.833 14.946C333.435 9.39418 338.805 5.54231 343.076 3.55729C345.171 2.58365 347.692 1.72414 350.329 1.83659C353.447 1.96962 356.314 3.46975 358.069 6.28288C359.525 8.6163 359.812 11.2233 359.835 13.1462C359.859 15.2061 359.579 17.4327 359.168 19.6452C358.345 24.0746 356.803 29.4322 355.021 35.1276L355.021 35.1296C354.031 38.2927 353.287 42.0664 353.043 45.6247C352.79 49.3239 353.127 52.1043 353.733 53.6725C353.819 53.8943 353.898 54.058 353.962 54.1755C354.904 54.0499 357.495 53.2334 362.23 49.4167L370.702 59.9284C364.84 64.653 359.064 67.7653 353.525 67.696C350.511 67.6581 347.745 66.6702 345.49 64.8063C343.335 63.0246 341.99 60.7307 341.144 58.5446C339.5 54.2964 339.265 49.224 339.574 44.7028C339.893 40.0406 340.845 35.2239 342.137 31.0973C343.862 25.5791 345.164 20.9795 345.843 17.443C343.333 19.0379 339.953 21.5526 335.521 25.279L335.52 25.2809C323.091 35.7229 313.791 45.074 306.599 52.1676C303.055 55.6632 299.867 58.7678 297.105 61.0866C294.588 63.201 291.41 65.5738 287.934 66.3112L287.933 66.3102C285.406 66.8468 282.621 66.9106 279.927 65.8727C277.125 64.7933 275.154 62.8061 273.876 60.571C271.596 56.5838 271.287 51.388 271.393 46.8698C271.601 37.9979 273.815 25.3849 275.314 13.654C274.957 13.7134 274.541 13.7951 274.063 13.9069C268.568 15.1934 260.107 19.1414 250.193 24.8141C230.63 36.009 208.022 52.3772 197.575 61.4333C192.112 66.1693 187.625 69.8102 183.968 72.4372C180.466 74.9521 177.169 76.9547 174.188 77.8376C172.651 78.2925 170.585 78.6402 168.375 78.0798C165.895 77.4507 164.032 75.883 162.887 73.9479C161.873 72.2337 161.528 70.4309 161.393 69.0778C161.251 67.6628 161.288 66.1995 161.394 64.8239L161.479 63.8444C162.249 55.742 165.157 43.5441 168.857 30.5075C166.727 31.7011 164.328 33.1171 161.711 34.7292C149.345 42.3455 133.513 53.4133 121.367 62.4508C115.119 67.0998 109.875 70.5662 105.475 72.9342C101.207 75.2309 97.1281 76.8335 93.3584 77.0622C89.0436 77.3238 85.0779 75.7401 82.5303 72.0631C80.4283 69.0293 79.8455 65.3047 79.6465 62.3005C79.4334 59.1309 79.6195 55.6151 79.7646 52.6286C79.9201 49.4297 80.0363 46.7269 79.8691 44.4362C79.788 43.3238 79.6498 42.4851 79.4824 41.8727C79.4039 41.5856 79.3267 41.38 79.2646 41.2399C79.1473 41.2309 78.9735 41.2243 78.7266 41.234L78.7275 41.235C76.1355 41.3391 72.0582 42.5068 66.5332 45.0788C61.161 47.5796 54.9976 51.1291 48.4141 55.3825C35.2565 63.8831 20.8958 74.8859 8.60352 85.0514L0 74.6481C12.5203 64.294 27.3268 52.9342 41.0879 44.0436C47.9633 39.6016 54.698 35.6978 60.8359 32.8405C66.8208 30.0545 72.8677 27.9592 78.1865 27.7458H78.1895C83.0088 27.5542 87.2654 29.2503 90.0537 33.0631C92.4441 36.332 93.1052 40.3315 93.333 43.4538C93.5708 46.713 93.3956 50.2659 93.249 53.2839C93.1118 56.1075 92.9978 58.4979 93.0723 60.5436L93.1162 61.4001L93.1172 61.4089C93.1781 62.3279 93.2754 62.9903 93.3691 63.4528C94.4489 63.2031 96.2734 62.5539 99.0762 61.0456C102.663 59.1152 107.318 56.0763 113.308 51.6198C125.637 42.446 141.813 31.1302 154.632 23.235C160.948 19.3446 166.824 16.0496 171.107 14.3444C172.209 13.9059 173.356 13.5101 174.479 13.2448C175.493 13.0054 177.03 12.7359 178.696 12.9801C180.555 13.2526 183.334 14.3508 184.729 17.4294C185.881 19.9744 185.336 22.3713 184.99 23.5085V23.5104C180.336 38.7892 176.63 52.9758 175.298 62.0329C175.551 61.8561 175.817 61.6698 176.092 61.4723C179.264 59.1939 183.396 55.8586 188.732 51.2331C199.886 41.5647 223.218 24.696 243.489 13.0964C253.493 7.3722 263.423 2.53304 270.986 0.762368Z" fill="#D7FF64"></path>
</svg>