<svg width="341" height="97" viewBox="0 0 341 97" fill="none" xmlns="http://www.w3.org/2000/svg">
<path d="M99.3408 1.08681C101.734 0.336827 104.609 -0.317609 107.325 0.165913C108.849 0.437356 110.685 1.13402 112.191 2.71572C113.721 4.3211 114.321 6.21799 114.478 7.79482C114.748 10.525 113.774 13.0944 113.075 14.6854C111.524 18.2147 108.693 22.4877 106.009 26.3925C103.145 30.5581 100.274 34.5493 97.9375 38.2157C92.8934 46.1301 86.157 55.9353 81.627 64.1015C81.0569 65.1292 80.5491 66.0838 80.1025 66.9638C81.6259 66.3233 83.3246 65.5703 85.1768 64.7138C91.9851 61.5652 100.408 57.2595 109.035 52.7704C117.596 48.3158 126.383 43.6672 133.697 39.9628C140.739 36.3963 147.26 33.2555 150.96 32.2284C153.837 31.4298 156.626 30.7627 158.851 30.6581C159.818 30.6126 161.857 30.5867 163.85 31.6454C165.011 32.2625 166.218 33.284 167.021 34.8261C167.806 36.3341 167.938 37.8266 167.849 38.9696C167.691 40.9811 166.798 42.5978 166.291 43.4374C165.68 44.4498 164.912 45.4677 164.116 46.4394C162.518 48.391 160.29 50.7795 157.624 53.5438C153.358 57.9664 146.377 64.9554 139.734 71.9491C140.74 71.3889 141.772 70.814 142.83 70.2274C156.957 62.394 175.134 52.6219 193.509 45.7606L196.294 44.7304C202.725 42.3771 208.668 40.3813 213.776 38.8915C219.438 37.2403 224.621 36.0439 228.387 35.8944C229.378 35.8551 230.479 35.8771 231.58 36.0565C232.613 36.2249 234.14 36.608 235.591 37.6386C237.257 38.8223 238.567 40.7027 238.865 43.0849C239.127 45.1698 238.519 46.9069 238.006 47.9862C237.014 50.0723 235.284 51.9521 233.612 53.5341C231.799 55.2494 229.434 57.1791 226.536 59.3339C220.206 64.0453 213.8 68.9336 208.131 73.4257C242.715 64.9576 278.31 61.2032 309.925 59.7226C309.797 59.669 309.669 59.6148 309.54 59.5614C301.493 56.2248 292.959 53.6247 286.195 52.789L287.851 39.3905C296.274 40.4314 306.055 43.502 314.71 47.0907C323.32 50.6607 331.507 55.0311 336.576 59.0282C337.663 59.8853 338.913 61.1546 339.689 62.9569C340.537 64.9261 340.603 67.0414 339.981 68.9882C338.937 72.2611 336.221 74.2501 334.667 75.2655C331.106 77.5919 325.589 79.7345 320.05 81.7274C308.163 86.0043 294.026 90.36 284.287 95.7274L277.771 83.9042C284.791 80.0349 293.83 76.6213 302.26 73.6464C266.304 75.7638 226.28 81.005 189.199 92.7138L189.2 92.7147C188.334 92.9888 187.303 93.2632 186.237 93.372C185.541 93.4431 183.1 93.6688 180.817 92.0673C179.442 91.1023 178.446 89.6858 178.01 88.0438C177.615 86.5578 177.777 85.2703 177.962 84.4647C178.306 82.9634 179.044 81.7958 179.451 81.1952C181.098 78.7671 184.461 75.6121 188.032 72.4989C194.057 67.247 202.657 60.4559 211.53 53.7235C207.492 55.0433 203.016 56.6204 198.233 58.4071C180.888 64.8838 163.478 74.2145 149.377 82.0341C142.422 85.8905 136.128 89.4603 131.253 91.9921C128.812 93.2598 126.545 94.3627 124.603 95.1464C123.63 95.5385 122.618 95.9001 121.626 96.1591C120.72 96.3954 119.385 96.6694 117.917 96.5624C116.142 96.4329 113.196 95.5726 111.621 92.4745C110.343 89.9596 110.866 87.5616 111.126 86.6112C111.699 84.5147 113.018 82.4507 114.083 80.9247C116.451 77.5309 120.208 73.1774 124.245 68.7597C129.458 63.0551 135.598 56.7545 140.693 51.5546C140.399 51.703 140.1 51.8528 139.798 52.0058C132.57 55.6667 123.955 60.2249 115.267 64.746C106.644 69.2326 97.9688 73.6712 90.8428 76.9667C87.2882 78.6105 83.9999 80.0261 81.2305 81.0282C79.847 81.5288 78.4925 81.9632 77.2363 82.2694C76.0796 82.5514 74.567 82.8376 73.0225 82.7606C70.028 82.6111 66.6605 81.162 65 77.5487C63.7101 74.7416 64.0896 71.8431 64.4697 70.0712C65.283 66.2813 67.4811 61.773 69.8223 57.5526C74.614 48.9148 81.9173 38.233 86.5527 30.9599C89.0556 27.0328 92.258 22.5648 94.8838 18.745C95.2967 18.1444 95.6923 17.5604 96.0723 16.997C95.9357 17.062 95.7969 17.1271 95.6572 17.1942L95.6562 17.1933C91.9824 18.9722 48.7618 42.668 7.28906 69.2675L0 57.9042C41.7584 31.1214 85.5189 7.09846 89.7959 5.0331L89.8057 5.02822C93.5401 3.23206 96.706 1.91264 99.3408 1.08681Z" fill="#D7FF64"></path>
</svg>