<svg width="168" height="245" viewBox="0 0 168 245" fill="none" xmlns="http://www.w3.org/2000/svg">
<path d="M122.853 0.000854492C124.537 0.0264047 125.834 0.612976 126.55 1.00378C127.937 1.76075 129.029 2.84625 129.663 3.51062C131.038 4.95152 132.659 7.04873 133.964 8.68347C135.43 10.521 136.757 12.1201 137.961 13.287C143.768 18.9165 152.819 25.7833 162.993 28.5966L159.396 41.6083C150.654 39.1914 142.903 34.6408 136.748 29.9911C138.593 36.3554 140.902 43.9723 141.661 49.4969L141.732 50.0438C144.28 71.0701 141.436 86.5921 132.783 98.2362C131.779 99.5871 130.708 100.868 129.576 102.086C137.571 105.252 144.55 109.387 149.982 114.31C156.776 120.468 161.501 128.217 162.02 137.008V137.012C162.612 147.144 159.995 156.056 154.682 163.585C155.398 164.166 156.09 164.763 156.755 165.376C164.016 172.064 168.176 180.675 167.924 190.205C167.675 199.63 163.143 208.95 155.029 217.335C139.599 233.278 112.24 242.93 83.7393 244.241C55.0564 245.561 23.7067 238.522 0 219.256L8.51367 208.78C28.9924 225.423 56.793 231.966 83.1191 230.755C109.627 229.535 133.137 220.542 145.328 207.946C151.774 201.285 154.292 195.026 154.429 189.849C154.563 184.776 152.444 179.76 147.608 175.306C146.897 174.651 146.128 174.011 145.302 173.389C144.863 173.737 144.416 174.083 143.962 174.423C131.957 183.387 114.684 189.032 93.7803 191.832C78.7291 193.848 66.5 193.729 57.5 192.049C53.0147 191.211 49.0419 189.934 45.8672 188.123C42.7607 186.351 39.7285 183.654 38.5107 179.715C37.2069 175.496 38.4743 171.509 40.7021 168.44C42.8353 165.502 46.0397 163.057 49.7471 161.01C57.2118 156.888 68.4559 153.434 83.3438 151.183C107.631 147.515 128.242 149.837 143.105 156.554C147.151 151.185 148.962 144.976 148.543 137.803C148.292 133.553 145.953 128.878 140.916 124.312C135.887 119.754 128.516 115.658 119.287 112.754C118.508 112.509 117.717 112.273 116.915 112.046C110.597 115.754 103.421 118.645 95.7305 121.167L95.7295 121.166C72.3383 128.84 51.7931 130.389 40.5996 128.001C37.8366 127.411 34.8342 126.423 32.5312 124.582C31.3136 123.609 30.0154 122.174 29.2988 120.171C28.5421 118.055 28.6479 115.893 29.3398 113.986C30.556 110.635 33.4301 108.377 35.8447 106.883C38.3574 105.327 41.5901 103.869 45.4707 102.49L46.2559 102.215C70.5384 93.8404 94.6434 93.2051 114.463 97.5262C117.437 95.3288 119.923 92.9092 121.947 90.1844C127.743 82.3853 130.655 70.8583 128.33 51.6688C127.833 47.5721 125.978 41.3295 123.975 34.4169C123.523 35.4963 123.061 36.5576 122.593 37.5936C118.754 46.0895 113.825 54.5864 110.542 60.5516L98.7158 54.0419C102.209 47.6953 106.737 39.8976 110.29 32.035C113.978 23.8722 115.857 17.1891 115.354 12.9315C115.151 11.2127 115.039 9.58589 115.119 8.16394C115.159 7.45096 115.258 6.57221 115.519 5.65808C115.764 4.79795 116.295 3.39696 117.538 2.15417C118.978 0.714903 120.895 -0.0287492 122.853 0.000854492ZM131.446 166.546C120.081 162.941 104.594 161.627 85.3613 164.532C71.2653 166.663 61.7763 169.788 56.2725 172.827C53.9182 174.127 52.5971 175.246 51.9268 176.001C52.0937 176.117 52.3009 176.251 52.5566 176.396C53.9953 177.217 56.3945 178.109 59.9775 178.778C67.115 180.111 77.8124 180.35 91.9883 178.451C108.918 176.183 122.105 172.071 131.446 166.546ZM91.2891 108.413C78.9271 108.203 65.4733 110.03 51.8447 114.575L50.6562 114.977C50.1737 115.144 49.7118 115.309 49.2705 115.472C58.59 115.894 73.5624 114.201 91.2891 108.413Z" fill="#D7FF64"></path>
</svg>