<svg width="96" height="96" viewBox="0 0 96 96" fill="none" xmlns="http://www.w3.org/2000/svg">
<path d="M25.3556 61L7 71.4264C8.16543 74.9018 15.2163 81.6714 34.0963 80.9461C52.9763 80.2208 63.3778 70.5197 66 65.5332L25.3556 61Z" stroke="currentColor" stroke-width="6" stroke-linejoin="round"></path>
<path d="M28.8725 45.5378L25 61L90 68V54.3465C89.6456 39.5478 77.1544 33.4992 70.953 32.3247C70.2148 32.1779 65.3718 31.5319 51.906 30.1225C38.4403 28.7131 30.9396 39.8121 28.8725 45.5378Z" stroke="currentColor" stroke-width="6" stroke-linejoin="round"></path>
<path d="M16.8154 35.1369C14.7879 35.1369 7.5295 31.7101 5.46146 25.068C4.12332 20.8797 5.70476 15.7183 10.0841 14.2799C12.1927 13.4761 15.3961 14.3645 16.8154 17.4529C18.2752 14.3645 21.4381 13.5184 23.5466 14.2799C27.926 15.676 29.5075 20.8797 28.1693 25.068C26.1013 31.6678 18.8429 35.1369 16.8154 35.1369Z" stroke="currentColor" stroke-width="6" stroke-linecap="round" stroke-linejoin="round"></path>
</svg>