<svg viewBox="0 0 24 24" xmlns="http://www.w3.org/2000/svg" role="img" aria-label="Google"><path fill="#4285F4" d="M23.52 12.27c0-.82-.07-1.6-.2-2.36H12v4.46h6.46a5.52 5.52 0 0 1-2.4 3.62v3h3.88c2.27-2.09 3.58-5.17 3.58-8.72z"/><path fill="#34A853" d="M12 24c3.24 0 5.96-1.07 7.94-2.91l-3.88-3.01c-1.08.72-2.45 1.15-4.06 1.15-3.12 0-5.77-2.11-6.71-4.94H1.28v3.1A12 12 0 0 0 12 24z"/><path fill="#FBBC05" d="M5.29 14.29a7.2 7.2 0 0 1 0-4.58v-3.1H1.28a12 12 0 0 0 0 10.78l4.01-3.1z"/><path fill="#EA4335" d="M12 4.77c1.76 0 3.34.61 4.59 1.8l3.43-3.43C17.95 1.19 15.23 0 12 0A12 12 0 0 0 1.28 6.61l4.01 3.1C6.23 6.88 8.88 4.77 12 4.77z"/></svg>
